<?xml version="1.0" encoding="utf-8"?>
<!-- Generator: Adobe Illustrator 19.0.0, SVG Export Plug-In . SVG Version: 6.00 Build 0)  -->
<svg version="1.1"
	 id="Lag_1" sodipodi:docname="Active Arm.svg" xmlns:inkscape="http://www.inkscape.org/namespaces/inkscape" xmlns:sodipodi="http://sodipodi.sourceforge.net/DTD/sodipodi-0.dtd" xmlns:svg="http://www.w3.org/2000/svg"
	 xmlns="http://www.w3.org/2000/svg" xmlns:xlink="http://www.w3.org/1999/xlink" x="0px" y="0px" viewBox="0 0 256 256"
	 style="enable-background:new 0 0 256 256;" xml:space="preserve">
<style type="text/css">
	.st0{fill:#FFFFFF;stroke:#FFFFFF;stroke-width:8.0991;stroke-miterlimit:10;}
</style>
<g transform="translate(0.000000,1024.000000) scale(0.100000,-0.100000)">
	<path class="st0" d="M1085.4,10185.4c-21.1-6-36.9-19-45-37.1c-5.7-12.9-8.5-39.1-13.4-121.8c-3.6-57.7-6.5-110.5-6.5-117.8
		c0-11.3-1.6-12.9-17-16.9c-46.2-11.7-98.1-31.5-147.1-56.1l-53.9-26.6l-37.7,33.5c-74.6,66.1-146.3,126.6-156.9,132.3
		c-17,8.9-34,6.9-55.1-6.5c-29.2-18.6-284.6-273-292.3-291.2c-8.5-21-7.7-37.9,2.8-52.8c11.8-16.5,85.5-107.7,125.7-154.5l31.2-36.3
		l-23.1-44.4c-12.6-24.2-33.2-73.8-45.8-110.5l-23.1-66.5l-106.6-2.8c-58.8-1.6-114.7-5.2-124-7.7c-18.2-4.8-38.9-23.4-45.4-41.1
		c-2.8-7.7-4.5-77.8-4.5-203.7c0-178.7,0.8-193.6,7.7-208.9c8.5-18.6,23.1-31.5,42.2-37.5c7.3-2,61.2-6,120.4-8.5
		s108.6-5.6,109.9-7.3c1.6-1.6,9.3-23.8,17.4-49.2c8.5-25.4,28.8-74.2,45.4-108.1l30-61.7l-27.6-31.1
		c-53.1-59.3-123.2-144-130.9-158.9c-9.3-18.6-9.7-31.9-0.8-50.8c8.1-16.9,272-282.7,293.1-294.8c15.4-9.3,40.1-10.9,53.1-4
		c4.5,2.4,48.6,38.7,98.1,81.1c49.5,42.3,92,77.4,94.9,78.6c2.4,0.8,17.8-5.6,34.5-14.5c37.7-20.6,113.5-49.6,153.6-58.9l31.2-7.3
		l2.4-48.8c5.3-101.6,11.3-174.2,15-186.7c6.1-19,19.1-33.5,37.7-41.9c15.4-6.9,30.4-7.7,200.6-7.7c128.5,0,188.5,1.6,199.8,4.8
		c9.3,2.8,21.9,11.3,31.2,21.8c19.1,20.2,18.2,16.1,27.2,152.9c3.6,55.7,7.7,102,8.9,103.7c1.6,1.2,17.4,6.5,35.3,11.3
		c57.6,16.1,120.4,41.5,161.3,65.3l19.9,11.3l49-43.6c61.2-53.6,127.3-109.7,140.7-119c16.2-10.9,40.5-8.9,61.2,5.6
		c20.7,14.1,266.7,260.1,284.2,283.5c13.8,19,15,39.1,2.8,58.9c-7.7,12.1-107.4,133.1-143.9,174.2l-13.4,14.9l24.3,46
		c23.5,45.6,49.9,110.5,60.4,150c2.8,11.3,6.5,21.4,7.7,23c1.6,2,50.3,5.2,107.8,7.3c58,2.4,111.5,6.5,118.8,8.9
		c17.8,5.6,41.3,26.2,47.8,42.3c4.5,10.5,5.7,52.4,5.7,202.5c0,167-0.8,192-6.5,206.5c-7.7,19-32,38.3-52.3,42.3
		c-7.7,1.2-60.4,3.6-117.6,4.8l-104.2,2.8l-17.8,54.9c-10.1,30.2-30.8,80.3-46.2,110.9l-27.6,55.7l21.1,24.2
		c28.4,32.7,128.5,154.9,137.4,167.8c9.3,13.3,8.5,39.5-0.8,55.3c-11.3,18.6-77.4,85.5-191.7,195.2
		c-79.4,76.2-103.4,96.8-116.3,100.8c-32,9.7-31.6,10.1-214-148l-20.7-18.1l-54.3,26.2c-49.9,24.2-103.4,44.8-143.5,54.9l-16.6,4
		l-2.4,29.4c-1.6,15.7-4.9,69-7.3,117.8c-3.6,73.8-5.7,91.6-12.6,105.7c-9.3,19.8-22.7,30.7-45.8,37.1
		C1451.9,10191.5,1105.7,10191.5,1085.4,10185.4z M1443.8,10088.6c1.2-9.7,5.3-66.1,8.9-125.8s8.1-112.9,9.7-117.8
		c5.3-13.3,17.8-19.8,60.8-31.1c59.6-15.7,106.2-33.9,169.8-66.1c32.4-16.1,63.2-29.4,68.9-29.4c16.2,0,28.8,9.7,123.2,94.8
		l88.8,79.5l120.8-120.2l121.2-120.6l-42.6-50.4c-95.3-112.5-123.2-149.2-123.2-160.9c0-6,12.6-36.3,28-67.4
		c33.2-66.1,55.9-122.2,71.3-175c13.8-47.2,15.8-50.8,29.6-58.1c9.7-4.8,167-14.5,235.1-14.5h17v-169v-169l-63.6-2.4
		c-141.1-5.6-182.8-8.9-193.4-16.1c-7.3-4.4-12.2-13.7-16.6-29.8c-18.6-66.5-46.2-137.9-75-195.6c-17.8-35.1-32.4-67.8-32.4-73
		s6.9-18.1,15-29c17.4-23,108.2-131.9,133.8-160.5l17.8-20.2l-86.3-85.9c-47.4-47.6-102.1-101.2-121.6-119l-35.7-32.3l-45.4,39.9
		c-95.7,83.9-143.9,122.2-156.5,124.6c-10.5,2-23.1-2.4-70.5-25.8c-66.9-32.7-108.6-48.4-173.1-64.9c-43.4-11.3-57.6-18.6-65.3-32.7
		c-1.6-3.2-6.5-57.7-10.1-121s-7.7-119-8.5-123.8l-1.6-9.3h-162.5c-126.1,0-162.1,1.2-163.4,4.8c-0.8,2.8-4.5,53.2-8.5,112.1
		c-3.6,58.9-8.1,114.1-10.1,122.6c-5.3,24.6-17.8,33.9-61.2,44.8c-68.5,17.3-138.2,45.2-206.3,82.7c-25.5,14.1-37.7,14.9-54.7,4.8
		c-6.5-4.4-52.7-42.3-101.7-84.7l-90-76.6l-118,117.8c-64.9,64.9-118,119.4-118,121.4c0,1.6,36.5,46.4,81.1,99.2
		c96.9,114.9,93.6,106.1,58.4,169.4c-30,54-55.5,114.9-73,174.6c-7.7,27-16.6,52.8-19.9,57.7c-8.5,12.5-27.6,16.1-101.3,19
		c-35.7,1.6-87.2,3.6-114.3,5.2l-49.9,2.4v168.6v169h19.5c55.5,0,223.3,9.3,233.1,12.9c14.2,5.2,19.9,16.5,32.8,62.9
		c15.8,54.9,44.2,125.8,71.7,178.3c13.4,25.4,24.7,51.2,24.7,57.3c0.4,14.9-8.9,27.8-93.6,128.3l-73,86.7l118.8,118
		c65.7,64.5,121.6,117.8,124.8,117.8s12.2-6.5,19.9-14.5c13.4-14.5,134.6-122.6,160.9-144c20.7-16.9,33.2-14.5,94.4,16.9
		c60.8,31.5,115.1,52.4,173.1,67.4c46.2,12.1,59.2,22.2,63.2,50.4c1.2,9.7,5.3,64.1,8.5,120.6s7.3,106.9,8.1,112.1l2,8.9H1280h161.7
		L1443.8,10088.6z"/>
	<path class="st0" d="M1210.5,9486.6c-154.1-21.2-293.7-107.4-379.4-234.3c-91.4-135.8-113.6-308.4-60.8-469.7
		c36.2-110.7,114.6-210.2,217.9-277c122.2-79.3,281-104.8,426.5-68.4c148.5,37,281,143.1,350.1,280
		c61.8,122.6,72.8,270.7,29.9,404.2c-14.3,44.3-44.8,105.4-71.4,142.1c-27.6,38.3-83,94.5-120.3,121.6
		C1491.2,9467.1,1345,9504.8,1210.5,9486.6z M1376.6,9412.5c159.5-32.4,297.6-153,350.1-305.4c18.6-53.2,23.3-84.6,23.3-152.7
		c0.3-69.4-3.3-93.2-22.3-150.1c-22.3-67.4-54.5-118-110.3-174.2c-58.5-58.5-112.3-92.2-186.7-116.7
		c-47.8-15.9-75.1-20.5-135.5-22.5c-47.5-1.3-62.8-0.7-96.3,5c-188.4,32.1-334.2,170.2-377.4,357.3c-9,37.7-12.3,127.6-6.3,169.9
		c26.9,197,182.4,355.7,384.4,392.3C1245.4,9423.8,1328.1,9422.5,1376.6,9412.5z"/>
</g>
</svg>
