<?xml version="1.0" encoding="utf-8"?>
<!-- Generator: Adobe Illustrator 19.0.0, SVG Export Plug-In . SVG Version: 6.00 Build 0)  -->
<svg version="1.1"
	 id="Lag_1" sodipodi:docname="Active Arm.svg" xmlns:inkscape="http://www.inkscape.org/namespaces/inkscape" xmlns:sodipodi="http://sodipodi.sourceforge.net/DTD/sodipodi-0.dtd" xmlns:svg="http://www.w3.org/2000/svg"
	 xmlns="http://www.w3.org/2000/svg" xmlns:xlink="http://www.w3.org/1999/xlink" x="0px" y="0px" viewBox="0 0 256 256"
	 style="enable-background:new 0 0 256 256;" xml:space="preserve">
<style type="text/css">
	.st0{fill:#FFFFFF;stroke:#FFFFFF;stroke-width:6.8295;stroke-miterlimit:10;}
	.st1{fill:#FFFFFF;}
</style>
<g>
	<path class="st0" d="M76.8,22.4c-39.2,14.5-50.1,18.7-51,19.7l-1.1,1.3l0.2,50c0.1,45.2,0.2,50.5,1,55.1
		c4.2,24.9,14.5,44.9,32.7,63.2c16.5,16.7,38.9,30.4,63.4,38.8c6.4,2.2,6.7,2.2,17.5-1.9c35.8-13.7,64.6-37.5,79.4-65.7
		c5.2-10,9.2-22.1,11.3-34.4c0.8-4.6,0.9-9.8,1-55.1l0.2-50l-1.1-1.3c-0.9-1-11.2-5-51.2-19.7C151.5,12.2,128.5,4,127.9,4
		S104.3,12.3,76.8,22.4z M174.6,31.7l46.3,17.1v46c0,50.4,0,49.2-3,61.8c-7.5,31.1-30.6,57.6-65.1,74.9c-11.1,5.5-21.7,9.6-24.7,9.6
		c-5,0-28.3-10.6-39.5-18c-29.9-19.6-46.9-44.3-52.2-75.5c-1.1-6.7-1.1-6.8-1.1-52.8V48.9l46.3-17.1c25.5-9.4,46.4-17.1,46.6-17.1
		S149.1,22.4,174.6,31.7z"/>
	<g>
		<g>
			<path class="st1" d="M160,80.2c-23.3,23.3-46.5,46.5-69.8,69.8c-3.3,3.3-6.6,6.6-9.9,9.9c-10.2,10.2,5.6,26,15.8,15.8
				c23.3-23.3,46.5-46.5,69.8-69.8c3.3-3.3,6.6-6.6,9.9-9.9C185.9,85.9,170.1,70.1,160,80.2L160,80.2z"/>
		</g>
	</g>
	<g>
		<g>
			<path class="st1" d="M175.8,160c-23.3-23.3-46.5-46.5-69.8-69.8c-3.3-3.3-6.6-6.6-9.9-9.9c-10.2-10.2-26,5.6-15.8,15.8
				c23.3,23.3,46.5,46.5,69.8,69.8c3.3,3.3,6.6,6.6,9.9,9.9C170.1,185.9,185.9,170.1,175.8,160L175.8,160z"/>
		</g>
	</g>
</g>
</svg>
