<?xml version="1.0" encoding="utf-8"?>
<!-- Generator: Adobe Illustrator 19.0.0, SVG Export Plug-In . SVG Version: 6.00 Build 0)  -->
<svg version="1.1"
	 id="Lag_1" sodipodi:docname="Active Arm.svg" xmlns:inkscape="http://www.inkscape.org/namespaces/inkscape" xmlns:sodipodi="http://sodipodi.sourceforge.net/DTD/sodipodi-0.dtd" xmlns:svg="http://www.w3.org/2000/svg"
	 xmlns="http://www.w3.org/2000/svg" xmlns:xlink="http://www.w3.org/1999/xlink" x="0px" y="0px" viewBox="0 0 256 256"
	 style="enable-background:new 0 0 256 256;" xml:space="preserve">
<style type="text/css">
	.st0{fill:none;stroke:#FFFFFF;stroke-width:17;stroke-miterlimit:10;}
	.st1{fill:#FFFFFF;}
</style>
<g>
	<g>
		<path class="st0" d="M149,9c9.7,0,23.2,5.5,30.2,12.2l30.7,29.7c6.9,6.7,12.6,20.1,12.6,29.8v148.8c0,9.7-7.9,17.6-17.6,17.6H51.1
			c-9.7,0-17.6-7.9-17.6-17.6V26.6C33.5,16.9,41.4,9,51.1,9H149z"/>
	</g>
	<g>
		<g>
			<path class="st1" d="M75.5,98.3c20.4,0,40.8,0,61.2,0c11.9,0,11.9-18.5,0-18.5c-20.4,0-40.8,0-61.2,0
				C63.6,79.9,63.6,98.3,75.5,98.3L75.5,98.3z"/>
		</g>
	</g>
	<g>
		<g>
			<path class="st1" d="M75.5,153c30.3,0,60.5,0,90.8,0c4.3,0,8.7,0,13,0c11.9,0,11.9-18.5,0-18.5c-30.3,0-60.5,0-90.8,0
				c-4.3,0-8.7,0-13,0C63.6,134.5,63.6,153,75.5,153L75.5,153z"/>
		</g>
	</g>
	<g>
		<g>
			<path class="st1" d="M76.1,207.6c30.3,0,60.5,0,90.8,0c4.3,0,8.7,0,13,0c11.9,0,11.9-18.5,0-18.5c-30.3,0-60.5,0-90.8,0
				c-4.3,0-8.7,0-13,0C64.2,189.1,64.2,207.6,76.1,207.6L76.1,207.6z"/>
		</g>
	</g>
</g>
</svg>
