<?xml version="1.0" encoding="utf-8"?>
<!-- Generator: Adobe Illustrator 19.0.0, SVG Export Plug-In . SVG Version: 6.00 Build 0)  -->
<svg version="1.1"
	 id="Lag_1" sodipodi:docname="Active Arm.svg" xmlns:inkscape="http://www.inkscape.org/namespaces/inkscape" xmlns:sodipodi="http://sodipodi.sourceforge.net/DTD/sodipodi-0.dtd" xmlns:svg="http://www.w3.org/2000/svg"
	 xmlns="http://www.w3.org/2000/svg" xmlns:xlink="http://www.w3.org/1999/xlink" x="0px" y="0px" viewBox="0 0 256 256"
	 style="enable-background:new 0 0 256 256;" xml:space="preserve">
<style type="text/css">
	.st0{fill:#888887;stroke:#888887;stroke-width:6.8295;stroke-miterlimit:10;}
	.st1{fill:#888887;}
</style>
<g>
	<g>
		<path class="st0" d="M77.2,22.4C38.2,36.9,27.3,41.1,26.5,42l-1.1,1.3l0.2,50c0.1,45.2,0.2,50.5,1,55.1
			c4.2,24.9,14.5,44.9,32.5,63.2c16.4,16.7,38.6,30.4,63,38.8c6.4,2.2,6.6,2.2,17.4-1.9c35.6-13.7,64.2-37.5,78.9-65.7
			c5.2-10,9.2-22.1,11.2-34.4c0.8-4.6,0.9-9.8,1-55.1l0.2-50l-1.1-1.3c-0.9-1-11.2-5-50.8-19.7C151.4,12.2,128.5,4,127.9,4
			S104.5,12.3,77.2,22.4z M174.2,31.7l46,17.1v46c0,50.4,0,49.2-3,61.8c-7.5,31.1-30.4,57.6-64.7,74.9c-11,5.5-21.5,9.6-24.6,9.6
			c-5,0-28.1-10.6-39.3-18c-29.7-19.6-46.6-44.3-51.9-75.5c-1.1-6.7-1.1-6.8-1.1-52.8V48.9l46-17.1c25.3-9.4,46.1-17.1,46.2-17.1
			S149,22.4,174.2,31.7z"/>
	</g>
	<g transform="translate(0.000000,512.000000) scale(0.100000,-0.100000)">
		<g>
			<path class="st1" d="M1720,4292.5c-15.7-5.8-144.4-129.5-286-272L1178,3760l-153,151c-95.8,95-163,151.1-181.6,151.1
				c-88.7,0-150.1-80.6-118.7-156.9c10-21.6,103-125.2,207.3-230.3c264.5-263.4,217.4-272,606.3,118c167.3,167,314.6,322.4,326,344
				c28.6,56.1,25.7,80.6-21.4,128.1C1800.1,4308.3,1770,4314,1720,4292.5z"/>
		</g>
	</g>
</g>
</svg>
