<?xml version="1.0" encoding="utf-8"?>
<!-- Generator: Adobe Illustrator 19.0.0, SVG Export Plug-In . SVG Version: 6.00 Build 0)  -->
<svg version="1.1"
	 id="Lag_1" sodipodi:docname="Active Arm.svg" xmlns:inkscape="http://www.inkscape.org/namespaces/inkscape" xmlns:sodipodi="http://sodipodi.sourceforge.net/DTD/sodipodi-0.dtd" xmlns:svg="http://www.w3.org/2000/svg"
	 xmlns="http://www.w3.org/2000/svg" xmlns:xlink="http://www.w3.org/1999/xlink" x="0px" y="0px" viewBox="0 0 256 256"
	 style="enable-background:new 0 0 256 256;" xml:space="preserve">
<style type="text/css">
	.st0{fill:#888887;}
</style>
<g>
	<path class="st0" d="M119.6,5.4C102.6,23.6,3.4,136.5,2.2,139c-1,2.3-1.4,4.6-1.1,8.5c0.4,6.7,3.5,11.6,9.1,14.6
		c3.4,1.8,4.9,2,15.2,2h11.3v32.4c0,34.2,0.4,38.8,3.8,44.9c2.8,4.9,8.8,10.1,13.7,12c4,1.5,7.3,1.6,74.1,1.6h69.9l4.5-2
		c5.5-2.5,12.2-9.6,14.3-15.2c1.4-3.7,1.6-7.7,1.9-38.9l0.3-34.7h11.3c10.2,0,11.7-0.2,15.1-2c5.6-3,8.7-7.9,9.1-14.6
		c0.3-3.9-0.1-6.2-1.1-8.5c-0.9-1.7-9-11.4-18-21.7l-16.5-18.5V63.1c0-38.2-0.2-39.8-4.4-42.8c-1.7-1.2-5-1.4-23.6-1.4h-21.7
		l-2.5,2.5c-2.3,2.3-2.5,3-2.5,8.5c0,3.3-0.3,6.1-0.6,6c-0.4,0-4.1-3.9-8.3-8.7s-11.2-12.6-15.6-17.5L132.1,1h-4.2
		C124,1,123.6,1.3,119.6,5.4z M148.4,46.2C170,70.4,171.2,71.4,176.9,69c4.9-2,5.7-4.5,5.7-19.3V36.9h9h9v32.8
		c0,19.9,0.3,33.7,0.9,35.1c0.5,1.3,8.7,11.1,18.3,21.9l17.6,19.6h-14.6c-11.6,0-15.1,0.3-17.1,1.4c-4.9,2.5-5,3.3-5,45.3
		c0,42.4,0.2,41.1-5.6,43.5c-4.3,1.8-129.5,1.8-133.7,0c-5.8-2.4-5.6-1-5.6-43.5c0-42-0.1-42.9-5-45.3c-2-1.1-5.5-1.4-16.7-1.4
		c-7.8,0-14.1-0.3-13.9-0.7C20.4,144,127.3,24.1,128,24.1C128.4,24.1,137.6,34,148.4,46.2z"/>
	<g transform="translate(0.000000,512.000000) scale(0.100000,-0.100000)">
		<g>
			<path class="st0" d="M1703.2,4088.3c-15.6-5.7-143.4-128.6-284-270.1L1165,3559.5l-151.9,150.1
				c-95.1,94.3-161.9,150.1-180.3,150.1c-88,0-149.1-80-117.9-155.8c9.9-21.4,102.2-124.3,205.9-228.7
				c262.7-261.5,215.8-270.1,602.1,117.2c166.1,165.8,312.4,320.1,323.7,341.6c28.4,55.7,25.6,80-21.3,127.2
				C1782.7,4104,1752.9,4109.8,1703.2,4088.3z"/>
		</g>
	</g>
</g>
</svg>
